<?xml version="1.0" encoding="UTF-8"?><svg id="Layer_2" xmlns="http://www.w3.org/2000/svg" xmlns:xlink="http://www.w3.org/1999/xlink" viewBox="0 0 514.68 315"><defs><style>.cls-1{fill:#ca997d;}.cls-2,.cls-3{fill:#dab9ab;}.cls-2,.cls-4,.cls-5,.cls-6,.cls-7,.cls-8{fill-rule:evenodd;}.cls-9{stroke:#fff;stroke-miterlimit:10;stroke-width:9.59px;}.cls-9,.cls-10{fill:none;}.cls-4{fill:#fff;}.cls-11,.cls-6{fill:#c9997c;}.cls-12{fill:#599cd6;}.cls-5,.cls-13{fill:#161615;}.cls-14{fill:#ee6c0a;}.cls-15{fill:#f3f2f2;}.cls-16{fill:#599ed7;}.cls-17{clip-path:url(#clippath);}.cls-18{fill:#8e6151;}.cls-7{fill:#f8d8c5;}.cls-8{fill:#9e8d85;}</style><clipPath id="clippath"><rect class="cls-10" width="514.68" height="315"/></clipPath></defs><g id="Layer_4"><g id="Group_312" transform="translate(0 0.004)"><g class="cls-17"><g id="Group_311" transform="translate(0 -0.004)"><path id="Path_2204" class="cls-18" d="M167.03,120.9s30.05,167.16,34.92,168.8,185.55-16.13,185.55-16.13c0,0,1.13-52.49-6.24-67.84-7.41-15.42-49.26-47.5-49.26-47.5l-30.12-45.79-9.78-51.91-80.07,23.48-45.01,36.9Z"/><path id="Path_2205" class="cls-18" d="M44.46,171.23s-4.45,60.2,.67,97.34c.84,6.1,6.27,7.1,7.6,11.67,6.07,20.82,23.43,2.32,25.35,2.96,4.87,1.66,186.62-4.74,186.62-4.74l-96.66-112.66-35.96-33.05-80.07,23.48-7.55,15Z"/><path id="Path_2206" class="cls-11" d="M4.03,131.76l104.3-33.43,33.49-7.36,60.37-1.75,33.49,9.35s-11.54,4.86-28.17,11.73c-39.02,16.12-106.04,43.27-117.68,44.5-16.6,1.76-84.95-4.2-83.66-6.26s-2.14-16.78-2.14-16.78"/><path id="Path_2207" class="cls-5" d="M474.97,304.03c-8.53,11.14-24.65,10.98-34.93,.76-12.53-12.5-12.55-37.17-.03-49.4,10.36-10.11,27.18-10.4,34.96,1.07,3.67,5.4,7.14,11.82,7.82,23.73,.62,10.79-5.07,21.67-7.82,23.85"/><path id="Path_2208" class="cls-8" d="M426.55,201.09c-12.73-.69-25.5-1.03-38.15-2.54-3.86-.45-7.42-4.03-10.98-6.4-4.46-3.01-8.69-6.36-13.18-9.33"/><path id="Path_2209" class="cls-4" d="M54.45,140.45v24.03c-7.98-4.86-10.69-9.54-8.65-17.75,.58-2.28,4.84-3.64,8.65-6.28"/><path id="Path_2210" class="cls-5" d="M162.7,101.78c17.78,.8,33.69,1.53,50.17,2.29v44.48c-16.73-15.6-32.94-30.7-50.17-46.77"/><path id="Path_2211" class="cls-5" d="M83.1,306.81c-9.78,1.5-23.7,6.1-22.46,6.13,23.32,.65,50.15,.36,73.5,.54,64.06,.51,126.74,2.97,192.17,.25,7.39-.31,25.1-4.15,29.05-10.41,4.74-7.52,11.48-25.35,11.48-25.35l18.21-.03,.42,8.3h53.7l56.79-3.57v-16.09c-1.02-17.52-1.87-35.05-2.54-52.61,.05-3.8-1.98-7.33-5.29-9.19l-30.43-20.6-12.18-8.31c-5.21-3.32-9.49-5.92-13.57-8.79-1.01-.95-1.71-2.2-1.98-3.56-5.71-20.54-11.54-41.05-16.89-61.68-1.26-4.86-3.65-7.12-8.19-8.69-36.36-12.48-72.66-25.21-109.02-37.7-2.32-.77-4.81-.83-7.16-.16-27.38,8.69-54.69,17.67-82.1,26.33-7.65,2.42-15.46,5.05-23.36,5.73-8.15,.7-16.48-1.09-24.75-1.36-7.83-.24-16.24-1.7-23.47,.48-42.97,13.01-85.67,26.93-128.46,40.55-7.29,2.33-7.28,2.36-5.73,9.62,2.86,13.33,8.64,17.33,21,13.33,4.91-1.58,8.29-1.22,11.1,2.94,2.32,3.45,6.03,6.91,6.33,10.6,.89,10.61,.37,21.32,.4,32,.03,26.24-.03,52.49,.24,78.72,.02,2.19,1.83,4.91,3.6,6.43,3.39,2.87,7.55,4.8,11.03,7.6,5.28,4.25,10.82,6.76,17.8,6.1,5.36-.5,10.78-.1,16.19-.13,8.33-.03,9.76,.99,12.93,9.35-9.82,.82-13.26,1.61-18.33,3.21M320.85,70.18c27.13,9.43,54.27,18.9,81.41,28.39-6.12-2.12,5.31,.08,6.12,4.62l3.54,15.48c.13,.04,.13,.08,.02,.08l-.02-.08c-3.3-1.55-96.75-24.54-104.85-27-1.27-.37-3.02-1.25-3.33-2.27-2.61-8.74-4.96-17.57-7.77-27.82,9.06,3.13,16.98,5.85,24.88,8.6m11.71,77.49c-2.16-.26-5.01-1.78-5.49-2.99-4.96-12.23-13.33-31.41-18.36-44.69,32.77,6.85,31.85,7.94,101.39,23.92,0,0,5.87,17.29,10.48,34.69-3.42,0-18.18-1.72-19.68-1.88M133.08,91.64c.99-.33,2.03-.5,3.9-.96-.86,10.02-3.88,18.44-10.61,24.43-3.34,2.98-8.74,3.84-13.36,5.11-31.45,8.75-62.93,17.42-94.44,25.99-6.88,1.89-10.74-.61-12.96-7.67-1.4-4.41-.77-6.44,4.24-7.99m44.61,9.08v24.03c-7.98-4.86-10.69-9.53-8.65-17.74,.58-2.29,4.84-3.63,8.65-6.29m73.66,152.73c-6.42,6.46-13.74,7.53-19.14,.19-6.62-9.02-6.79-24.53-.34-33.71,5.66-8.07,13.91-7.92,19.74,.03,2.07,2.79,5,5.71,5.96,12.57,1.04,7.69-2.13,16.82-6.21,20.92m211.8,0c-6.43,6.46-13.73,7.53-19.13,.19-6.62-9.02-6.79-24.53-.35-33.71,5.65-8.07,13.92-7.92,19.75,.03,2.05,2.79,4.98,5.71,5.93,12.57,1.05,7.69-2.11,16.82-6.2,20.92m-192.53,10.03c5.16-14.58,17.1-7.57,26.28-8.93,6.01-.9,5.41,5.6,9.66,8.93h-35.95Zm82.71-1.28c2.93-8.44,3.95-9.14,12.67-9.16,14.72-.07,29.45-.13,44.16-.34,9.3-.12,9.3-.24,15.56,9.49h-72.39Zm58.59-23.03l-42.08-.96c-33.65,.56-67.28,1.12-100.9,1.68-1.17-6.21-1.7-11.8-3.3-17.08-2.64-8.61-7.71-15.64-16.35-19.08-11.38-4.53-24.16,1.22-29.89,14.33-3.04,6.92-4.05,14.75-6.19,23.01-10.7,.26-22.52,.87-34.34,.7-6.32-.08-10.55-5.64-10.5-12.12,.23-31.84,.47-63.69,.72-95.55,0-1.89,.19-3.8,.34-6.7,5.08,4.7,9.6,7.67,9.12,15.39-.95,15.34-.44,30.75-.51,46.13,0,1.04,.23,2.1,.42,3.84,51.89-2.63,103.59-5.24,155.62-7.88l.2-65.66-13.76-15.31c-11.99-11.21-24.13-22.27-35.97-33.65-5.83-5.59-11.45-11.04-20.95-9.11,.56-3.53,.98-6.13,1.46-9.1,9.54,.51,18.86,.58,28.09,1.6,10.88,1.29,21.9,.15,32.28-3.35,27.4-9.28,55.05-17.81,82.59-26.62,1.51-.48,3.05-.85,5.28-1.48,2.12,9.47,4.15,18.55,6.18,27.63,4.31,19.38,9.89,41.81,17.23,61.43,.93,2.5-1.38,.72,.93,2.5,20.38,15.47,50.52,33.35,66.86,53.04,4.24,5.11,2.43,25.5,3.11,37.77,.51,9.63,.67,34.46,.67,34.46l-96.36,.14Zm43.93-122.17l67.53,7.76c5.49,.85,10.94,1.97,16.45,2.62,5.18,.58,9.17,3.11,13.36,6.06,14.89,10.44,30.06,20.46,45.11,30.64,.3,.16,.58,.35,.85,.56-.22,.71,1.82,.57,1.6,1.27-13.68-2.2-28.46-2.36-42.34-3.75-3.06-.3-5.53-.64-8.62-.8-12.73-.69-25.5-1.05-38.15-2.55-3.86-.44-7.42-4.01-10.98-6.39l-44.81-35.42Z"/><path id="Path_2212" class="cls-7" d="M132.41,123.87c3.67-1.84,7.2-11.45,7.2-11.45h8.55l53.79,49.28v55.96l-134.77,7.87v-80.31s49.97-13.64,65.23-21.35"/><path id="Path_2213" class="cls-2" d="M52.24,223.97l164.67-10.35v-26.16l-164.67,13.37v23.14Z"/><path id="Path_2214" class="cls-5" d="M48.21,228.46l164.66-10.34v-26.16l-164.66,13.35v23.15Z"/><path id="Path_2215" class="cls-4" d="M230.05,256.69c0-3.71-6.62-97.24-6.66-99.54-.34-17.9-.66-35.8-1.08-53.69-.07-2.78,.22-4.77,3.15-5.67,17.7-5.38,35.35-10.91,53.43-16.53l14.51,67.29c-18.08,5.48-44.3-5.67-62.18-.24-.34,3.32,1.12,104.16,.69,108.39"/><path id="Path_2216" class="cls-4" d="M390.81,205.72l95.63,5.04,1.08,40.53-95.76,.6-.95-46.17Z"/><path id="Path_2217" class="cls-5" d="M387.5,227.64c0-7.79,0-15.6,.02-23.37,0-3.93,.73-4.96,3.62-4.87,6.65,.17,13.28,.38,19.92,.61,2.41,.1,3.22,1.24,3.22,4.52,0,15.37,0,30.73,0,46.08,0,3.52-.8,4.57-3.36,4.65-6.56,.18-13.11,.36-19.67,.49-3.01,.06-3.72-.94-3.74-5.08v-23.03Zm6.4,20.99h13.96v-42.14h-13.96v42.14Z"/><path id="Path_2218" class="cls-5" d="M467.61,230.21c0-7.09,0-14.17,0-21.24,0-3.57,.65-4.5,3.21-4.43,5.87,.17,11.72,.36,17.59,.57,2.13,.1,2.84,1.12,2.84,4.11,.02,13.96,.02,27.91,.01,41.87-.01,3.19-.71,4.16-2.97,4.21-5.8,.18-11.59,.33-17.39,.45-2.67,.06-3.3-.85-3.31-4.62v-20.93Zm5.66,19.08h12.32v-38.3h-12.32v38.3Z"/><path id="Path_2219" class="cls-5" d="M467.83,215.97c-.04,1.81-.07,3.17-.11,4.52-.01,.58-.11,1.16-.16,1.85-18.8-.46-37.5-.89-56.39-1.35,.06-2.49,.11-4.75,.18-7.43,18.75,.81,37.44,1.59,56.48,2.4"/><path id="Path_2220" class="cls-5" d="M467.75,226.76c-.04,1.8-.07,3.15-.11,4.52-.03,.58-.1,1.17-.17,1.86-18.8-.46-37.5-.9-56.39-1.36,.07-2.48,.11-4.75,.18-7.43,18.74,.81,37.44,1.59,56.48,2.41"/><path id="Path_2221" class="cls-5" d="M467.67,238.05c-.05,1.8-.06,3.16-.11,4.52,0,.58-.09,1.16-.15,1.86-18.81-.45-37.51-.9-56.39-1.35,.07-2.49,.11-4.75,.17-7.42,18.75,.8,37.44,1.57,56.49,2.39"/><path id="Path_2222" class="cls-5" d="M349.22,296.3c-8.5,11.14-24.63,11-34.9,.77-12.55-12.51-12.55-37.17-.04-49.42,10.34-10.11,27.17-10.4,34.94,1.06,3.68,5.42,7.15,11.83,7.84,23.74,.61,10.81-5.07,21.67-7.84,23.85"/><path id="Path_2223" class="cls-7" d="M339.92,293.18c-6.43,6.46-13.73,7.54-19.13,.2-6.62-9.03-6.79-24.53-.34-33.72,5.65-8.05,13.92-7.91,19.75,.03,2.05,2.8,4.98,5.71,5.93,12.58,1.05,7.67-2.11,16.81-6.2,20.91"/><path id="Path_2224" class="cls-2" d="M390.6,264.58c.05-1.63,.05-3.27,.18-4.89,.23-2.75,.19-3.56,4.78-3.76,15.43-.67,28.18,1.03,42.27,1.22,8.94,.12,17.88-.07,26.82-.12,6.84-.02,13.66-.05,20.49-.11,3.07-.03,4.68,1.45,4.61,4.38-.06,2.02-.12,4.03-.23,6.05-.04,2.29-1.92,4.12-4.22,4.08-8.87,.37-17.74,.72-26.61,1.05-12.74,.5-25.48,1-38.23,1.52-4.78,.19-9.56,.6-14.33,.49-4.09-.18-8.16-.59-12.21-1.22-2.44-.35-3.5-1.78-3.49-4.11,.02-1.53,.1-3.05,.16-4.58"/><rect id="Rectangle_151" class="cls-13" x="354.53" y="272.39" width="30.93" height="13.85"/><path id="Path_2225" class="cls-5" d="M229.54,143.59c0-10.56,0-21.13,0-31.72,0-4.72,1.22-6.59,5.55-8.29,8.8-3.47,17.61-6.91,26.43-10.3,5.38-2.07,9.07-.21,10.52,5.33,5.68,21.92,11.34,43.85,16.97,65.78,1.25,4.89-.69,8.04-5.74,9.26-14.66,3.48-29.32,6.91-44,10.29-6.21,1.42-9.69-1.47-9.71-7.98-.05-10.79-.02-21.59-.02-32.39m11.66-34.97c.02,.24,.07,.46,.09,.69,2.03-.4,4.04-.85,6.08-1.21,2.05-.37,4.18-.48,6.18-1,5.5-1.45,8.32,.36,10.31,6.7,3.76,11.93,7.56,23.86,11.4,35.79,.36,1.17,.88,2.29,1.31,3.43-2.94-15.72-6.29-31.28-9.72-46.83-1.01-4.6-3.15-6.07-7.27-4.64-6.21,2.16-12.27,4.69-18.39,7.07"/><path id="Path_2226" class="cls-4" d="M241.77,105.87c6.12-2.37,12.18-4.91,18.39-7.07,4.11-1.43,6.26,.04,7.27,4.64,3.43,15.55,6.77,31.11,9.72,46.83-.43-1.14-.95-2.27-1.31-3.43-3.82-11.93-7.62-23.86-11.4-35.79-1.98-6.34-4.81-8.16-10.31-6.7-2.01,.52-4.13,.64-6.18,1-2.04,.37-4.05,.81-6.08,1.21-.02-.23-.07-.46-.09-.69"/><path id="Path_2227" class="cls-3" d="M216.94,280.25l-4.07-13.59,85.23-1.93v15.52h-81.16Z"/><path id="Path_2228" class="cls-13" d="M220.14,283.38l-3.93-13.05,81.9-1.87v14.92h-77.97Z"/><path id="Path_2229" class="cls-2" d="M332,155.66l64.84,7.46c5.27,.83,10.51,1.88,15.8,2.49,4.99,.58,8.82,3.01,12.84,5.84,14.28,10.03,28.87,19.65,43.32,29.42,.28,.16,.55,.34,.8,.55-.2,.68,1.75,.54,1.54,1.22-13.13-2.11-27.34-2.27-40.67-3.6-2.93-.29-5.32-.62-8.27-.77-12.23-.68-24.49-1-36.64-2.44-3.71-.43-7.14-3.87-10.54-6.15l-43.03-34.01Z"/><path id="Path_2230" class="cls-4" d="M498.93,296.32c9.31-6.35,14.67-14.42,13.29-25.9,4.91,10.69-1.17,22.66-13.29,25.9"/><path id="Path_2231" class="cls-9" d="M498.93,296.32c9.31-6.35,14.67-14.42,13.29-25.9,4.91,10.69-1.17,22.66-13.29,25.9Z"/><path id="Path_2232" class="cls-2" d="M332.56,147.67c-2.16-.26-5.01-1.78-5.49-2.99-4.96-12.23-13.33-31.41-18.36-44.69,32.77,6.84,31.85,7.94,101.39,23.92,0,0,5.87,17.29,10.48,34.69-3.42,0-18.18-1.72-19.69-1.88"/><path id="Path_2233" class="cls-2" d="M128.12,292.37c-6.42,6.46-13.74,7.53-19.14,.19-6.62-9.02-6.79-24.53-.34-33.71,5.66-8.07,13.91-7.93,19.73,.03,2.07,2.79,5,5.71,5.96,12.57,1.04,7.69-2.13,16.82-6.22,20.92"/><path id="Path_2234" class="cls-6" d="M321.2,71.42c27.13,9.44,54.27,18.9,81.41,28.39-6.12-2.12,5.31,.08,6.12,4.63l3.55,15.48c.13,.04,.13,.08,.03,.08l-.03-.08c-3.3-1.55-96.75-24.54-104.85-27-1.27-.37-3.02-1.25-3.33-2.27-2.61-8.74-4.96-17.56-7.77-27.82,9.06,3.13,16.98,5.85,24.88,8.6"/><path id="Path_2235" class="cls-1" d="M405.01,92.98c.17,.07,.34,.15,.51,.23,.04,.01,.09,.02,.13,.03,.17,.05,.32,.14,.44,.26,.47,.25,.92,.53,1.36,.82l-.71-47.27-2.46,.06,.69,45.85s.02,0,.03,0"/><path id="Path_2236" class="cls-1" d="M408.07,45.52c.05,1.45-1.08,2.67-2.53,2.74-1.44,0-2.61-1.15-2.61-2.59v-.04c-.05-1.45,1.08-2.68,2.53-2.74,1.44,0,2.61,1.16,2.61,2.6v.03"/><path id="Path_2237" class="cls-16" d="M372.8,42.57c10.43-2.91,21.27,21.08,31.7,18.17-.04-2.77-.08-5.53-.12-8.3-10.43,2.91-21.27-21.08-31.7-18.17,.04,2.77,.08,5.53,.12,8.3"/><path id="Path_2238" class="cls-15" d="M372.92,50.88c10.43-2.91,21.27,21.08,31.7,18.17-.04-2.77-.08-5.53-.12-8.3-10.43,2.91-21.27-21.08-31.7-18.17,.04,2.77,.08,5.54,.12,8.3"/><path id="Path_2239" class="cls-12" d="M373.05,59.18c10.43-2.91,21.27,21.08,31.7,18.17-.04-2.77-.08-5.53-.13-8.3-10.43,2.91-21.27-21.08-31.7-18.17,.04,2.77,.08,5.54,.12,8.3"/><path id="Path_2240" class="cls-14" d="M386.91,54.45c-.3-.23-.34-.14-.49-.23-.21-.17-.4-.35-.58-.55-.08-.07-.17-.11-.27-.13,.06-.04,.15-.05,.22-.02,.07,.03,.36,.36,.55,.46,.16,.05,.31,.12,.46,.2,.17,.13,.32,.26,.47,.41,0-.05,0-.1-.01-.14-1.02-1.02-1.73-1.71-1.73-1.74s.71,.62,1.73,1.62c0-.02,0-.03,0-.05-.11-.2-.23-.4-.38-.58-.16-.19-.34-.36-.53-.52-.2-.25-.38-.51-.54-.78-.08-.11-.18-.21-.29-.29,.1,.03,.2,.08,.28,.16,.08,.07,.33,.5,.53,.7,.17,.17,.31,.25,.51,.48,.15,.17,.36,.48,.46,.62,0-.03,.02-.05,.03-.08-.95-1.4-1.6-2.36-1.59-2.37s.68,.91,1.63,2.3v-.03c-.06-.22-.16-.44-.27-.64-.15-.25-.31-.49-.49-.72-.16-.29-.3-.58-.42-.88-.08-.14-.17-.27-.27-.4,.11,.09,.21,.19,.3,.31,.08,.11,.25,.55,.43,.83,.15,.23,.31,.39,.48,.68,.13,.22,.3,.58,.38,.74,.02-.01,.04-.02,.06-.03-.73-1.57-1.23-2.65-1.21-2.66s.54,1.08,1.29,2.64h.03c-.03-.21-.07-.42-.15-.61-.11-.28-.24-.55-.38-.81-.1-.28-.17-.56-.23-.85-.06-.16-.12-.31-.21-.45,.1,.13,.19,.27,.27,.42,.06,.12,.13,.53,.26,.83,.11,.26,.26,.48,.37,.78,.09,.23,.19,.59,.23,.74,.03,0,.06,.02,.09,.03-.4-1.5-.67-2.54-.65-2.53s.33,1.07,.74,2.58l.03,.02c.04-.16,.04-.32,.02-.48-.05-.26-.12-.52-.21-.78-.03-.23-.03-.46,0-.69-.02-.15-.06-.29-.11-.43,.08,.15,.15,.3,.2,.45,.03,.12-.01,.42,.06,.7,.06,.24,.16,.48,.21,.75,.03,.2,.05,.41,.05,.62,.03,.03,.07,.06,.1,.09-.01-1.2,0-2.02,.02-2s.06,.89,.08,2.11l.02,.03c.1-.06,.16-.16,.18-.27,.02-.21,.02-.42,0-.62,.03-.27,.18-.3,.21-.41,.02-.11,.02-.23,0-.34,.05,.14,.08,.28,.1,.42,0,.1-.15,.24-.15,.46,.02,.2,.02,.41,.02,.61-.03,.14-.07,.27-.14,.4,.04,.05,.07,.1,.11,.15,.19-.41,.42-.8,.69-1.16-.16,.45-.36,.89-.59,1.3,0,0,.01,.02,.02,.03,.1,.04,.22,.03,.31-.02,.18-.12,.12-.29,.2-.37,.13-.13,.32-.04,.41-.08s.12-.2,.12-.2c.02,.11,.01,.22-.02,.33-.03,.06-.26,.03-.35,.15s-.08,.28-.18,.38c-.09,.06-.2,.11-.31,.13,.03,.06,.06,.11,.09,.17,.41-.1,.82-.15,1.24-.17-.37,.16-.76,.27-1.16,.33,0,.02,.01,.03,.02,.05,.11,.1,.25,.18,.39,.23,.26,.07,.25-.08,.37-.06,.21,.03,.42,.23,.54,.27,.07,.03,.15,.02,.21-.02,0,0-.04,.15-.13,.18-.05,.02-.34-.19-.49-.18-.12,0-.19,.11-.35,.08-.15-.04-.29-.09-.42-.16,.02,.05,.04,.11,.05,.16,.94,.48,1.59,.82,1.6,.85-.54-.19-1.06-.42-1.56-.69,0,0,0,.01,0,.02,.12,.16,.26,.3,.41,.42,.3,.24,.34,.14,.49,.24,.21,.17,.4,.36,.58,.56,.08,.07,.17,.11,.27,.14-.07,.04-.15,.05-.22,.02-.07-.03-.36-.36-.55-.46-.16-.05-.31-.12-.46-.2-.16-.13-.32-.26-.47-.41,0,.06,.01,.12,.02,.18,1.02,1.02,1.72,1.72,1.72,1.75s-.71-.62-1.72-1.62v.03c.11,.2,.23,.38,.36,.56,.16,.19,.34,.37,.53,.53,.2,.25,.38,.51,.54,.79,.09,.11,.18,.21,.29,.3-.1-.03-.2-.09-.28-.16-.08-.08-.33-.5-.53-.7-.17-.18-.31-.26-.51-.49-.14-.16-.34-.45-.44-.6,0,.03-.02,.07-.03,.1,.94,1.4,1.59,2.35,1.58,2.37s-.67-.91-1.62-2.29v.02c.06,.21,.15,.41,.26,.6,.15,.25,.31,.49,.49,.72,.16,.29,.29,.59,.42,.89,.08,.14,.17,.28,.27,.4-.11-.09-.21-.19-.29-.31-.08-.11-.25-.56-.43-.83-.15-.24-.31-.4-.48-.68-.12-.2-.27-.52-.35-.69-.02,.01-.05,.02-.07,.03,.72,1.56,1.22,2.64,1.2,2.64s-.54-1.07-1.28-2.63h-.03c.03,.19,.07,.38,.14,.56,.11,.28,.24,.55,.38,.82,.1,.28,.17,.56,.23,.86,.06,.16,.12,.31,.21,.45-.1-.13-.19-.27-.27-.42-.06-.12-.13-.53-.26-.83-.11-.26-.26-.48-.37-.78-.08-.21-.17-.51-.22-.68-.03-.01-.07-.02-.1-.04,.4,1.49,.66,2.52,.64,2.51s-.32-1.06-.74-2.56l-.05-.03c-.03,.14-.03,.29-.01,.43,.05,.26,.12,.52,.21,.78,.03,.23,.03,.46,0,.68,.02,.15,.06,.29,.11,.43-.08-.15-.14-.3-.2-.45-.04-.12,0-.42-.06-.7-.06-.24-.16-.48-.21-.75-.03-.19-.04-.38-.05-.57-.03-.03-.07-.06-.1-.09,0,1.19,0,2.01-.02,1.98s-.06-.88-.08-2.09c-.02-.02-.03-.03-.05-.05-.08,.06-.14,.15-.16,.25-.02,.21-.02,.42,0,.62-.03,.27-.18,.3-.22,.41-.02,.11-.02,.23,0,.34-.05-.14-.08-.28-.1-.42,0-.1,.15-.24,.16-.46-.02-.2-.02-.41-.02-.61,.02-.13,.07-.26,.13-.38-.03-.05-.07-.09-.1-.14-.19,.41-.42,.79-.68,1.16,.16-.45,.35-.88,.58-1.3-.01-.02-.03-.05-.05-.07-.09-.03-.2-.02-.28,.02-.18,.12-.12,.3-.2,.37-.13,.14-.32,.04-.41,.08s-.12,.2-.12,.2c-.02-.11-.01-.22,.02-.33,.03-.06,.26-.03,.34-.15,.07-.11,.07-.28,.18-.38,.09-.06,.19-.11,.29-.12-.03-.05-.05-.1-.07-.14-.41,.1-.82,.16-1.24,.17,.37-.16,.76-.28,1.16-.34-.01-.03-.03-.06-.04-.1-.11-.09-.24-.17-.37-.21-.26-.07-.25,.08-.37,.07-.21-.02-.42-.22-.54-.26-.07-.02-.15-.01-.21,.03,0,0,.04-.15,.13-.18,.05-.02,.34,.18,.49,.17,.12,0,.19-.11,.35-.08,.14,.04,.28,.09,.41,.16-.01-.04-.03-.09-.04-.13-.94-.47-1.6-.8-1.6-.83,.54,.19,1.06,.41,1.56,.68v-.06c-.13-.15-.27-.29-.41-.42"/><path id="Path_2241" class="cls-11" d="M289.77,54.88c.17,0,.35-.02,.53-.04h0c.61-.11,1.23-.14,1.85-.08l-3.94-44.84-2.75,.29,3.93,44.74c.12-.04,.24-.06,.37-.06"/><path id="Path_2242" class="cls-11" d="M289.6,8.26c.07,1.54-1.11,2.86-2.65,2.97-1.49,.22-2.89-.81-3.11-2.3v-.06c-.08-1.54,1.1-2.86,2.64-2.97,1.49-.22,2.89,.81,3.11,2.3v.06"/><path id="Path_2243" class="cls-16" d="M249.82,8.7c11.5-3.89,25.34,18.96,36.84,15.06-.24-2.75-.48-5.5-.72-8.26-11.5,3.9-25.34-18.96-36.84-15.06l.72,8.25"/><path id="Path_2244" class="cls-15" d="M250.54,16.96c11.5-3.89,25.34,18.96,36.84,15.06-.24-2.75-.48-5.5-.72-8.26-11.5,3.9-25.34-18.96-36.84-15.06,.24,2.75,.48,5.5,.72,8.26"/><path id="Path_2245" class="cls-12" d="M251.27,25.22c11.5-3.9,25.34,18.96,36.84,15.07-.24-2.75-.48-5.5-.73-8.26-11.5,3.9-25.34-18.96-36.84-15.07l.72,8.26"/><path id="Path_2246" class="cls-14" d="M266.49,19.18c-.36-.2-.39-.1-.56-.18-.24-.15-.47-.31-.69-.5-.1-.06-.2-.09-.31-.1,.07-.05,.16-.07,.24-.04,.08,.02,.43,.32,.65,.4,.18,.04,.36,.09,.53,.15,.19,.11,.38,.23,.56,.36,0-.05-.02-.1-.02-.14-1.22-.92-2.06-1.54-2.07-1.57s.84,.55,2.06,1.44c0-.02,0-.03,0-.05-.14-.19-.29-.37-.46-.54-.2-.18-.41-.33-.63-.47-.24-.23-.46-.47-.66-.72-.11-.1-.22-.19-.35-.26,.12,.02,.23,.06,.32,.13,.1,.07,.41,.46,.64,.64,.2,.16,.37,.22,.6,.43,.18,.15,.44,.44,.56,.58,0-.03,.02-.05,.03-.08-1.16-1.3-1.96-2.19-1.95-2.21s.83,.84,1.99,2.13c0,0,.01-.02,.02-.03-.1-.22-.22-.42-.36-.61-.19-.24-.39-.46-.6-.67-.19-.27-.37-.55-.53-.84-.1-.13-.21-.26-.33-.37,.13,.08,.25,.17,.35,.28,.09,.1,.32,.53,.54,.78,.19,.22,.37,.36,.58,.63,.16,.2,.38,.55,.47,.7,.02-.01,.04-.02,.07-.03-.93-1.49-1.57-2.53-1.55-2.53s.69,1.02,1.63,2.51h.03c-.04-.21-.11-.42-.21-.61-.14-.27-.3-.53-.48-.77-.13-.27-.23-.54-.32-.83-.07-.15-.16-.3-.26-.43,.12,.12,.23,.25,.33,.39,.08,.12,.19,.51,.35,.8,.15,.25,.32,.45,.47,.74,.12,.23,.22,.47,.31,.71,.03,0,.07,.01,.1,.02-.55-1.46-.93-2.46-.9-2.46s.44,1.03,1.02,2.5h.04c.03-.14,.03-.3,0-.46-.08-.26-.17-.51-.29-.76-.05-.22-.07-.45-.06-.68-.03-.14-.08-.28-.15-.42,.1,.14,.18,.28,.25,.43,.05,.12,.02,.42,.11,.69,.08,.24,.22,.46,.29,.73,.05,.2,.08,.4,.1,.61,.04,.03,.08,.05,.12,.08-.07-.66-.11-1.33-.11-1.99,.03,.02,.13,.88,.24,2.09l.03,.03c.1-.06,.17-.17,.19-.29,.05-.29-.06-.46-.05-.62,.02-.27,.18-.32,.21-.43,.02-.11,0-.23-.02-.34,.06,.13,.11,.27,.14,.41,.01,.1-.15,.25-.14,.47,.03,.2,.05,.4,.06,.61-.02,.14-.07,.28-.13,.41,.05,.04,.09,.09,.14,.14,.19-.43,.42-.84,.69-1.22-.15,.47-.34,.92-.57,1.36,0,0,.02,.02,.03,.03,.12,.03,.24,.01,.35-.05,.19-.13,.12-.3,.2-.39,.14-.15,.36-.07,.45-.12s.12-.21,.12-.21c.02,.11,.02,.22,0,.33-.03,.07-.3,.05-.38,.18-.07,.11-.07,.29-.17,.39-.1,.07-.22,.13-.34,.15,.04,.05,.08,.11,.11,.16,.45-.14,.91-.23,1.38-.28-.41,.19-.84,.34-1.28,.44,.01,.01,.02,.03,.03,.05,.14,.09,.29,.16,.45,.19,.3,.05,.28-.1,.42-.1,.22,.04,.42,.12,.62,.22,.08,.02,.17,0,.24-.05,0,0-.03,.15-.14,.19-.06,.02-.4-.15-.56-.13-.14,.02-.2,.12-.39,.12-.17-.02-.33-.06-.48-.12,.02,.05,.05,.1,.07,.16,1.08,.39,1.84,.66,1.86,.69-.61-.14-1.21-.32-1.8-.54v.02c.15,.14,.32,.27,.49,.38,.36,.21,.39,.11,.56,.19,.24,.15,.48,.31,.69,.5,.1,.06,.2,.1,.31,.11-.07,.05-.16,.06-.24,.04-.08-.02-.44-.33-.65-.41-.18-.04-.36-.09-.53-.16-.19-.11-.38-.23-.55-.36,.01,.06,.02,.12,.03,.18,1.21,.92,2.05,1.55,2.06,1.58s-.84-.56-2.05-1.45v.03c.13,.19,.28,.36,.45,.52,.2,.18,.41,.33,.63,.47,.24,.23,.46,.47,.66,.73,.11,.1,.22,.19,.35,.27-.12-.02-.23-.07-.32-.14-.1-.07-.41-.47-.64-.65-.2-.16-.37-.23-.6-.44-.17-.15-.41-.41-.54-.56,0,.03-.02,.07-.03,.1,1.15,1.3,1.95,2.19,1.94,2.21s-.82-.85-1.98-2.13v.02c.09,.2,.2,.39,.33,.57,.18,.24,.39,.46,.6,.67,.19,.27,.37,.55,.53,.85,.1,.14,.21,.26,.33,.38-.13-.08-.25-.17-.35-.28-.09-.1-.32-.53-.54-.79-.19-.22-.37-.36-.58-.63-.15-.19-.34-.49-.45-.66-.03,.02-.05,.03-.08,.04,.92,1.48,1.55,2.51,1.54,2.52s-.68-1.02-1.62-2.5h-.04c.04,.19,.11,.37,.19,.55,.14,.27,.31,.53,.48,.78,.13,.27,.23,.54,.32,.83,.07,.15,.16,.3,.26,.43-.12-.12-.23-.25-.33-.39-.08-.12-.19-.52-.35-.8-.15-.25-.32-.45-.47-.74-.1-.2-.22-.49-.29-.66-.04,0-.08-.02-.11-.03,.55,1.45,.92,2.45,.89,2.44s-.44-1.03-1.01-2.48l-.06-.02c-.02,.14-.02,.29,.02,.43,.08,.26,.17,.51,.29,.76,.05,.22,.07,.45,.06,.68,.03,.14,.09,.28,.15,.42-.1-.14-.18-.28-.25-.43-.05-.12-.02-.42-.11-.69-.08-.24-.22-.46-.29-.73-.04-.19-.07-.38-.09-.57-.04-.02-.08-.05-.12-.08,.07,.66,.11,1.32,.11,1.98-.03-.02-.13-.87-.24-2.08-.02-.02-.04-.03-.06-.05-.09,.06-.14,.16-.16,.27-.06,.29,.06,.46,.05,.62-.02,.27-.18,.32-.21,.43-.01,.11,0,.23,.02,.34-.06-.13-.11-.27-.14-.41-.01-.1,.15-.25,.14-.47-.03-.2-.06-.4-.06-.61,.02-.13,.06-.27,.12-.39-.04-.04-.08-.08-.12-.13-.19,.43-.42,.83-.69,1.22,.15-.47,.33-.92,.56-1.36-.02-.02-.04-.04-.06-.07-.11-.02-.22,0-.32,.05-.19,.13-.12,.31-.2,.39-.14,.15-.36,.07-.45,.12s-.12,.21-.12,.21c-.03-.11-.03-.22,0-.33,.03-.07,.29-.06,.38-.19,.07-.11,.06-.29,.17-.39,.09-.07,.2-.12,.32-.15-.03-.04-.06-.09-.09-.14-.45,.14-.91,.24-1.38,.29,.41-.2,.84-.35,1.28-.45-.02-.03-.04-.06-.05-.09-.13-.08-.28-.14-.43-.18-.3-.04-.28,.1-.42,.1-.22-.04-.42-.11-.62-.21-.08-.02-.17,0-.24,.05,0,0,.03-.15,.13-.19,.06-.02,.4,.15,.56,.12,.14-.02,.2-.12,.39-.12,.16,.02,.32,.06,.47,.12-.02-.04-.04-.08-.05-.12-1.08-.38-1.85-.64-1.86-.68,.61,.13,1.21,.31,1.8,.53l-.02-.06c-.15-.14-.31-.27-.48-.38"/></g></g></g></g></svg>