<?xml version="1.0" standalone="no"?>
<svg xmlns:xlink="http://www.w3.org/1999/xlink" id="wave" style="transform:rotate(0deg); transition: 0.3s" viewBox="0 0 1440 220" version="1.1" xmlns="http://www.w3.org/2000/svg"><defs><linearGradient id="sw-gradient-0" x1="0" x2="0" y1="1" y2="0"><stop stop-color="rgba(61, 50, 45, 1)" offset="0%"/><stop stop-color="rgba(184.74, 180.984, 172.68, 1)" offset="100%"/></linearGradient></defs><path style="transform:translate(0, 0px); opacity:1" fill="url(#sw-gradient-0)" d="M0,88L80,73.3C160,59,320,29,480,44C640,59,800,117,960,121C1120,125,1280,73,1440,44C1600,15,1760,7,1920,36.7C2080,66,2240,132,2400,165C2560,198,2720,198,2880,179.7C3040,161,3200,125,3360,106.3C3520,88,3680,88,3840,95.3C4000,103,4160,117,4320,102.7C4480,88,4640,44,4800,51.3C4960,59,5120,117,5280,143C5440,169,5600,161,5760,161.3C5920,161,6080,169,6240,154C6400,139,6560,103,6720,91.7C6880,81,7040,95,7200,88C7360,81,7520,51,7680,55C7840,59,8000,95,8160,95.3C8320,95,8480,59,8640,66C8800,73,8960,125,9120,146.7C9280,169,9440,161,9600,157.7C9760,154,9920,154,10080,135.7C10240,117,10400,81,10560,84.3C10720,88,10880,132,11040,143C11200,154,11360,132,11440,121L11520,110L11520,220L11440,220C11360,220,11200,220,11040,220C10880,220,10720,220,10560,220C10400,220,10240,220,10080,220C9920,220,9760,220,9600,220C9440,220,9280,220,9120,220C8960,220,8800,220,8640,220C8480,220,8320,220,8160,220C8000,220,7840,220,7680,220C7520,220,7360,220,7200,220C7040,220,6880,220,6720,220C6560,220,6400,220,6240,220C6080,220,5920,220,5760,220C5600,220,5440,220,5280,220C5120,220,4960,220,4800,220C4640,220,4480,220,4320,220C4160,220,4000,220,3840,220C3680,220,3520,220,3360,220C3200,220,3040,220,2880,220C2720,220,2560,220,2400,220C2240,220,2080,220,1920,220C1760,220,1600,220,1440,220C1280,220,1120,220,960,220C800,220,640,220,480,220C320,220,160,220,80,220L0,220Z"/></svg>