<?xml version="1.0" encoding="UTF-8"?><svg id="Layer_2" xmlns="http://www.w3.org/2000/svg" xmlns:xlink="http://www.w3.org/1999/xlink" viewBox="0 0 1991 249"><defs><style>.cls-1{fill:#fff;}.cls-2{clip-path:url(#clippath-2);}.cls-3{opacity:.4;}.cls-4{clip-path:url(#clippath-1);}.cls-5{fill:#f1e1d1;}.cls-6{clip-path:url(#clippath);}.cls-7{fill:none;}.cls-8{clip-path:url(#clippath-3);}</style><clipPath id="clippath"><rect class="cls-7" width="1991" height="249"/></clipPath><clipPath id="clippath-1"><rect class="cls-7" width="2008.07" height="248.76"/></clipPath><clipPath id="clippath-2"><rect class="cls-7" width="2008.07" height="248.76"/></clipPath><clipPath id="clippath-3"><rect class="cls-7" y="92.11" width="2008.07" height="115.17"/></clipPath></defs><g id="Layer_4"><g class="cls-6"><g id="Mask_Group_271" transform="translate(-226 -450)"><g class="cls-4"><g id="Group_1325" transform="translate(226 450)"><path id="Path_6092" class="cls-1" d="M0,0H2003.48V248.76H0V0Z"/><g id="Group_1324"><g class="cls-2"><g id="Group_1323"><path id="Path_6090" class="cls-5" d="M0,165.94v82.82H546.92c334.29,0,668.58-.02,1002.87-.07l456.91-.14c-3.87-.45,3.65-73.77,.62-80.89-13.69-32.14-130.23-17.71-157.46-16.93-64.94,1.88-128.1,11.99-192.41,19.24-64.65,7.29-130.07,7.55-194.93,12.07-97.65,7-195.73,5.37-293.1-4.89-243.34-25.21-484.18-53.41-729.27-40.18C405.25,138.85,0,171.84,0,165.94"/><g id="Group_1322" class="cls-3"><g id="Group_1321"><g class="cls-8"><g id="Group_1320"><path id="Path_6091" class="cls-5" d="M0,124.46v82.82H546.92c334.29,0,668.58-.02,1002.87-.07l456.91-.14c-3.87-.45,3.65-73.77,.62-80.89-13.69-32.14-130.23-17.71-157.46-16.93-64.94,1.88-128.1,11.99-192.41,19.24-64.65,7.29-130.07,7.55-194.93,12.07-97.65,7-195.73,5.37-293.1-4.89-243.34-25.21-484.18-53.41-729.27-40.18C405.25,97.37,0,130.36,0,124.46"/></g></g></g></g></g></g></g></g></g></g></g></g></svg>