<svg id="Group_1125" data-name="Group 1125" xmlns="http://www.w3.org/2000/svg" xmlns:xlink="http://www.w3.org/1999/xlink" width="2042.276" height="180.94" viewBox="0 0 2042.276 180.94">
  <defs>
    <clipPath id="clip-path">
      <rect id="Rectangle_294" data-name="Rectangle 294" width="2042.276" height="180.94" fill="none"/>
    </clipPath>
  </defs>
  <g id="Group_1124" data-name="Group 1124" clip-path="url(#clip-path)">
    <path id="Path_5142" data-name="Path 5142" d="M2037.783,18.031a10.644,10.644,0,0,1,2.587,1.6c4.305,3.768-.027,15.261-.027,19.554V133.4H.175V56.045c-.348,0,1.563-.619,1.215-.619C271.371,20.349,550.765-15.007,826.4,6.615c221.061,17.342,433.212,70.988,656.4,62.8,95.848-3.518,187.85-18.321,279.843-31.142,65.041-9.064,130.409-19.02,197.951-22.18,17.978-.841,63.143-4.481,77.194,1.942" transform="translate(0 0)" fill="#87807d"/>
    <path id="Path_5143" data-name="Path 5143" d="M2037.65,113.613a10.643,10.643,0,0,1,2.587,1.6c4.3,3.768-.027,15.261-.027,19.554v94.213H.042V151.627c-.347,0,1.563-.619,1.215-.619C271.238,115.931,550.632,80.575,826.265,102.2c221.061,17.342,433.212,70.988,656.4,62.8,95.848-3.518,187.85-18.321,279.843-31.142,65.041-9.064,130.409-19.02,197.951-22.18,17.978-.841,63.143-4.481,77.194,1.942" transform="translate(0 -48.039)" fill="#3d322d"/>
  </g>
</svg>
