<?xml version="1.0" encoding="UTF-8"?><svg id="Layer_2" xmlns="http://www.w3.org/2000/svg" xmlns:xlink="http://www.w3.org/1999/xlink" viewBox="0 0 407.12 26.03"><defs><style>.cls-1{fill:#917867;}.cls-2{clip-path:url(#clippath-2);}.cls-3{clip-path:url(#clippath-1);}.cls-4{clip-path:url(#clippath);}.cls-5{fill:none;}.cls-6{opacity:.85;}</style><clipPath id="clippath"><rect class="cls-5" x=".05" y=".82" width="407.02" height="24.39" transform="translate(-.05 .82) rotate(-.23)"/></clipPath><clipPath id="clippath-1"><rect class="cls-5" x=".05" y=".82" width="407.02" height="24.39" transform="translate(-.05 .82) rotate(-.23)"/></clipPath><clipPath id="clippath-2"><rect class="cls-5" x=".21" y=".82" width="406.85" height="24.39" transform="translate(-.05 .82) rotate(-.23)"/></clipPath></defs><g id="Layer_4"><g id="Group_898" transform="matrix(0.998, -0.07, 0.07, 0.998, 0, 13.511)"><g class="cls-4"><g id="Group_130" transform="translate(0 0)"><g id="Group_129" transform="translate(0 0)"><g class="cls-3"><g id="Group_128"><g id="Group_127" class="cls-6" transform="translate(0.079 0)"><g id="Group_126" transform="translate(0 0)"><g class="cls-2"><g id="Group_125"><path id="Path_365" class="cls-1" d="M373.58,22.95l-4.08-.09c.68,.04,1.36,.1,2.05,.2,.68,.04,1.36,0,2.03-.11"/><path id="Path_366" class="cls-1" d="M365.73,22.77l-.72-.02-.62,.03h1.34"/><path id="Path_367" class="cls-1" d="M358.63,22.75c1.26,.05,2.45,.06,3.61,.05-1.02-.05-2.21-.07-3.61-.05"/><path id="Path_368" class="cls-1" d="M364.28,22.97c-.44-.07-.65-.14,.07-.18h.03l-2.14,.02c.77,.04,1.45,.09,2.04,.16"/><path id="Path_369" class="cls-1" d="M364.28,22.97c.42,.07,1.09,.14,1.32,.18-.38-.06-.82-.13-1.32-.18"/><path id="Path_370" class="cls-1" d="M362.45,24.5c-.72,.04-.54-.4-1.96-.33-3.32,.07-6.17,.21-9.28,.13-1.42,.07-3.64-.47-5.05-.4-3.36,.06-11.87,.47-6.86,.54,7.54,.1,12.46,.1,19.22,.15l16.42-.28c1.58,0,3.05,.07,4.53,.12l-6.11-.3c-2.89-.17-6.39,.33-10.93,.36"/><path id="Path_371" class="cls-1" d="M403.6,23.62l-2.13,.12c-3.26-.28-6.54-.35-9.81-.19l1.47,.24c1.89,0,2.12-.12,.44-.24,3.86,.31,7.52,.39,11.27,.4-.23-.12-.18-.26-1.24-.34"/><path id="Path_372" class="cls-1" d="M407.03,23.94h-2.2s.05,.04,.08,.05l2.2-.04h-.08"/><path id="Path_373" class="cls-1" d="M343.56,22.84l-13.79-.31-13.21-.4c-.67,.1-1.36,.13-2.04,.08-.67-.1-1.35-.16-2.03-.21l-3.78-.13h-1.37c-.71,.04-.5,.11-.07,.19,.49,.06,.94,.13,1.32,.2-.24-.04-.89-.12-1.32-.2-.6-.07-1.26-.13-2.03-.18-1.16-.01-2.36-.03-3.61-.1,1.39,0,2.58,.03,3.61,.1h2.14l.62-.03c-2.89-.09-5.77-.21-8.64-.33l-1.81-.02c-1.82,.05-3.64-.04-5.45-.27l-1.54-.06,.3,.05-.58-.06-6.54-.27c-1.42,.04-2.88,.1-4.34,.11l-1.46-.28c-.81,.1-1.63,.14-2.44,.13,1.17,.18,2.24,.36,3.23,.49,1.67-.05,3.34,0,5.01,.14-1.67-.14-3.34-.19-5.01-.14-1-.13-2.06-.31-3.23-.49-2.3-.01-4.6-.17-6.88-.47,2.3-.06,4.6,.1,6.88,.47,.82,.01,1.63-.03,2.44-.13l1.46,.28c1.47,0,2.92-.07,4.34-.11-4.27-.17-8.58-.39-12.98-.58l-41.54-1.93c-13.75-.7-27.62-1.38-42.31-2.29-7.95-.45-15.74-1-23.42-1.54l-11.43-.82-11.28-.89c-29.83-2.4-57.14-3.73-87.16-7.26-5.76-.65-14.01-1.4-22.21-2.07L9.47,1.7C-5.55,1.11,1.96,3.68,2.65,3.85c4.54,1.15,9.17,1.92,13.84,2.31l9.01,.95c3.44,.36,7.39,.81,12.04,1.44-6.35-.8-3.97-.86,1.49-.46,2.73,.2,6.23,.52,9.79,.91s7.19,.84,10.17,1.36c4.32,.76,9.12,1.37,14.22,1.88s10.53,.9,16.08,1.27c11.1,.76,22.73,1.3,33.48,2.25,5.37,.49,11.11,.74,17.54,1.19,33.35,2.65,64.45,3.59,99.59,5.24,4.66,.19,9.04,.28,13.24,.32l12.14,.06c5.73,.13,11.85,.6,16.51,.74,7.33,.23,13.64,.28,19.69,.28-6.75-.14-11.69-.18-19.22-.36-5.02-.14,3.52-.45,6.84-.47,1.43-.05,3.64,.51,5.07,.45,3.09,.1,5.94,0,9.27-.02,1.43-.05,1.25,.39,1.96,.36,4.53,.02,8.04-.45,10.93-.25l6.1,.37c1.22,.06,2.43,.11,3.72,.13l2.47-.04c-.4-.07-.78-.24-1.1-.5,1.19,.05,2.88,.2,4.07,.25-1.2-.05-2.88-.2-4.07-.25,.32,.26,.7,.43,1.1,.5,5.97-.11,12.85-.2,19.25-.25l-.08-.04c-3.74-.04-7.38-.16-11.25-.51,1.68,.13,1.47,.25-.45,.24l-1.46-.25c3.27-.13,6.55-.03,9.81,.29l2.14-.1c1.05,.08,1,.22,1.22,.34h2.21c-1.55-.24-6.45-.63-6.45-.63"/><path id="Path_374" class="cls-1" d="M305.16,21.86h1.8l-7.27-.27c1.81,.24,3.64,.33,5.46,.27"/></g></g></g></g></g></g></g></g></g></g></g></svg>