<?xml version="1.0" encoding="UTF-8"?><svg id="Layer_2" xmlns="http://www.w3.org/2000/svg" xmlns:xlink="http://www.w3.org/1999/xlink" viewBox="0 0 1999 249"><defs><style>.cls-1{clip-path:url(#clippath-2);}.cls-2{opacity:.4;}.cls-3{clip-path:url(#clippath-1);}.cls-4{fill:#ecdccc;}.cls-5{clip-path:url(#clippath);}.cls-6{fill:none;}.cls-7{clip-path:url(#clippath-3);}.cls-8{fill:#3d322d;}</style><clipPath id="clippath"><rect class="cls-6" width="1999" height="249"/></clipPath><clipPath id="clippath-1"><rect class="cls-6" y=".02" width="2008.07" height="248.76"/></clipPath><clipPath id="clippath-2"><rect class="cls-6" y=".02" width="2008.07" height="248.76"/></clipPath><clipPath id="clippath-3"><rect class="cls-6" y="92.13" width="2008.07" height="115.17"/></clipPath></defs><g id="Layer_4"><g class="cls-5"><g id="Mask_Group_271" transform="translate(0 -637)"><g id="Group_1320" transform="translate(0 637.018)"><g class="cls-3"><g id="Group_1318"><path id="Path_6090" class="cls-4" d="M0,.02H2003.48V248.78H0V.02Z"/><g id="Group_1317"><g class="cls-1"><g id="Group_1316"><path id="Path_6088" class="cls-8" d="M0,165.95v82.82H546.92c334.29,0,668.58-.02,1002.87-.07l456.91-.14c-3.87-.45,3.65-73.77,.62-80.89-13.69-32.14-130.23-17.71-157.46-16.93-64.94,1.88-128.1,11.99-192.41,19.24-64.65,7.29-130.07,7.55-194.93,12.07-97.65,7-195.73,5.37-293.1-4.89-243.34-25.21-484.18-53.41-729.27-40.18C405.25,138.87,0,171.86,0,165.95"/><g id="Group_1315" class="cls-2"><g id="Group_1314"><g class="cls-7"><g id="Group_1313"><path id="Path_6089" class="cls-8" d="M0,124.48v82.82H546.92c334.29,0,668.58-.02,1002.87-.07l456.91-.14c-3.87-.45,3.65-73.77,.62-80.89-13.69-32.14-130.23-17.71-157.46-16.93-64.94,1.88-128.1,11.99-192.41,19.24-64.65,7.29-130.07,7.55-194.93,12.07-97.65,7-195.73,5.37-293.1-4.89-243.34-25.21-484.18-53.41-729.27-40.18C405.25,97.39,0,130.38,0,124.48"/></g></g></g></g></g></g></g></g></g></g></g></g></g></svg>